<?xml version="1.0" standalone="no"?>
<!DOCTYPE svg PUBLIC "-//W3C//DTD SVG 20010904//EN"
 "http://www.w3.org/TR/2001/REC-SVG-20010904/DTD/svg10.dtd">
<svg version="1.0" xmlns="http://www.w3.org/2000/svg"
 width="425.000000pt" height="425.000000pt" viewBox="0 0 425.000000 425.000000"
 preserveAspectRatio="xMidYMid meet">
<metadata>
Created by potrace 1.11, written by Peter Selinger 2001-2013
</metadata>
<g transform="translate(0.000000,425.000000) scale(0.100000,-0.100000)"
fill="#000000" stroke="none">
<path d="M0 2125 l0 -2125 2125 0 2125 0 0 2125 0 2125 -2125 0 -2125 0 0
-2125z m2895 1471 c187 -46 386 -94 443 -107 56 -12 102 -26 102 -30 0 -4 -18
-47 -41 -96 -22 -48 -143 -313 -269 -588 -125 -275 -284 -621 -354 -768 l-125
-269 61 -81 c182 -240 321 -404 506 -598 56 -59 102 -110 102 -114 0 -3 -87
-48 -192 -100 -106 -51 -274 -136 -373 -189 -99 -53 -182 -96 -186 -96 -19 0
-273 417 -380 624 -82 160 -88 168 -93 135 -3 -19 -7 -159 -11 -313 -3 -153
-8 -282 -11 -287 -3 -5 -204 -9 -455 -9 -351 0 -451 3 -454 13 -2 6 -16 392
-30 857 -25 835 -36 1098 -75 1708 -11 172 -20 317 -20 322 0 6 213 10 575 10
l575 0 0 -42 c0 -24 -14 -310 -30 -637 -17 -326 -29 -595 -27 -597 5 -5 212
677 266 876 22 80 58 218 82 308 34 134 45 162 58 158 9 -3 169 -43 356 -90z"/>
</g>
</svg>
