<?xml version="1.0" encoding="UTF-8"?>
<svg width="23px" height="23px" viewBox="0 0 23 23" version="1.1" xmlns="http://www.w3.org/2000/svg" xmlns:xlink="http://www.w3.org/1999/xlink">
    <!-- Generator: Sketch 41.1 (35376) - http://www.bohemiancoding.com/sketch -->
    <title>close</title>
    <desc>Created with Sketch.</desc>
    <defs></defs>
    <g id="Page-1" stroke="none" stroke-width="1" fill="none" fill-rule="evenodd">
        <g id="Modal" transform="translate(-1176.000000, -723.000000)" fill="#D8D8D8">
            <g id="close" transform="translate(1176.000000, 723.000000)">
                <g id="Back">
                    <path d="M20.1283155,13.487828 L22.2193083,11.3665898 L11.0948397,0 C11.0948397,0 9.2470321,1.87453541 9.00384689,2.1212382 C8.76066167,2.36794099 20.1283155,13.487828 20.1283155,13.487828 Z" id="Rectangle-10-Copy-5" transform="translate(15.609654, 6.743914) scale(-1, 1) translate(-15.609654, -6.743914) "></path>
                    <path d="M11.1283155,13.487828 L13.2193083,11.3665898 L2.09483971,0 C2.09483971,0 0.247032099,1.87453541 0.00384688558,2.1212382 C-0.239338328,2.36794099 11.1283155,13.487828 11.1283155,13.487828 Z" id="Rectangle-10-Copy-7"></path>
                    <path d="M20.1283155,22.487828 L22.2193083,20.3665898 L11.0948397,9 C11.0948397,9 9.2470321,10.8745354 9.00384689,11.1212382 C8.76066167,11.367941 20.1283155,22.487828 20.1283155,22.487828 Z" id="Rectangle-10-Copy-6"></path>
                    <path d="M11.1283155,22.487828 L13.2193083,20.3665898 L2.09483971,9 C2.09483971,9 0.247032099,10.8745354 0.00384688558,11.1212382 C-0.239338328,11.367941 11.1283155,22.487828 11.1283155,22.487828 Z" id="Rectangle-10-Copy-8" transform="translate(6.609654, 15.743914) scale(-1, 1) translate(-6.609654, -15.743914) "></path>
                    <path d="M20.1283155,13.487828 L22.2193083,11.3665898 L11.0948397,0 C11.0948397,0 9.2470321,1.87453541 9.00384689,2.1212382 C8.76066167,2.36794099 20.1283155,13.487828 20.1283155,13.487828 Z" id="Rectangle-10-Copy-5" transform="translate(15.609654, 6.743914) scale(-1, 1) translate(-15.609654, -6.743914) "></path>
                    <path d="M11.1283155,13.487828 L13.2193083,11.3665898 L2.09483971,0 C2.09483971,0 0.247032099,1.87453541 0.00384688558,2.1212382 C-0.239338328,2.36794099 11.1283155,13.487828 11.1283155,13.487828 Z" id="Rectangle-10-Copy-7"></path>
                    <path d="M20.1283155,22.487828 L22.2193083,20.3665898 L11.0948397,9 C11.0948397,9 9.2470321,10.8745354 9.00384689,11.1212382 C8.76066167,11.367941 20.1283155,22.487828 20.1283155,22.487828 Z" id="Rectangle-10-Copy-6"></path>
                    <path d="M11.1283155,22.487828 L13.2193083,20.3665898 L2.09483971,9 C2.09483971,9 0.247032099,10.8745354 0.00384688558,11.1212382 C-0.239338328,11.367941 11.1283155,22.487828 11.1283155,22.487828 Z" id="Rectangle-10-Copy-8" transform="translate(6.609654, 15.743914) scale(-1, 1) translate(-6.609654, -15.743914) "></path>
                </g>
            </g>
        </g>
    </g>
</svg>