<?xml version="1.0" encoding="UTF-8"?>
<svg width="63px" height="15px" viewBox="0 0 63 15" version="1.1" xmlns="http://www.w3.org/2000/svg" xmlns:xlink="http://www.w3.org/1999/xlink">
    <!-- Generator: Sketch 41.1 (35376) - http://www.bohemiancoding.com/sketch -->
    <title>Fill 1</title>
    <desc>Created with Sketch.</desc>
    <defs></defs>
    <g id="Page-1" stroke="none" stroke-width="1" fill="none" fill-rule="evenodd">
        <g id="Large-Device-Desktops-Copy-2" transform="translate(-1055.000000, -2835.000000)" fill="#FFFFFF">
            <path d="M1062.24397,2849.04113 L1055,2835.15043 L1056.91446,2835.15043 C1058.14786,2837.59103 1059.77343,2840.79278 1060.93648,2843.02232 C1061.75525,2844.59326 1062.3233,2845.82816 1062.3233,2845.82816 C1062.3233,2845.82816 1062.90632,2844.56332 1063.7438,2842.95721 C1064.9046,2840.73066 1066.51146,2837.56708 1067.73214,2835.15043 L1069.64585,2835.15043 L1062.40039,2849.04487 L1062.24397,2849.04113 Z M1077.04474,2836.46541 C1074.05181,2836.46541 1071.62542,2838.95466 1071.62542,2842.02468 C1071.62542,2845.09545 1074.05181,2847.58395 1077.04474,2847.58395 C1080.03768,2847.58395 1082.46406,2845.09545 1082.46406,2842.02468 C1082.46406,2838.95466 1080.03768,2836.46541 1077.04474,2836.46541 L1077.04474,2836.46541 Z M1077.04474,2849.04711 C1073.16193,2849.04711 1070.01407,2845.903 1070.01407,2842.02468 C1070.01407,2838.14636 1073.16193,2835.00225 1077.04474,2835.00225 C1080.92755,2835.00225 1084.07541,2838.14636 1084.07541,2842.02468 C1084.07541,2845.903 1080.92755,2849.04711 1077.04474,2849.04711 L1077.04474,2849.04711 Z M1093.47782,2848.90117 L1086.60208,2848.90117 L1086.60208,2835.14894 L1088.21118,2835.14894 L1088.21118,2847.29132 L1093.47782,2847.29132 L1093.47782,2848.90117 Z M1098.74446,2836.75804 L1093.47782,2836.75804 L1093.47782,2835.14894 L1100.35431,2835.14894 L1100.35431,2848.90117 L1098.74446,2848.90117 L1098.74446,2836.75804 Z M1104.37708,2836.75804 C1103.93252,2836.75804 1103.57252,2836.3973 1103.57252,2835.95349 C1103.57252,2835.50893 1103.93252,2835.14894 1104.37708,2835.14894 C1104.82164,2835.14894 1105.18163,2835.50893 1105.18163,2835.95349 C1105.18163,2836.3973 1104.82164,2836.75804 1104.37708,2836.75804 L1104.37708,2836.75804 Z M1115.55699,2848.89818 C1114.32434,2846.45683 1112.69877,2843.25434 1111.53572,2841.02404 C1110.7162,2839.45311 1110.1489,2838.21821 1110.1489,2838.21821 C1110.1489,2838.21821 1109.56588,2839.48304 1108.7284,2841.08915 C1107.56685,2843.31645 1105.96074,2846.48078 1104.74006,2848.89818 L1102.8256,2848.89818 L1110.07181,2835 L1110.22823,2835.00374 L1117.4722,2848.89818 L1115.55699,2848.89818 Z" id="Fill-1"></path>
        </g>
    </g>
</svg>